<svg xmlns="http://www.w3.org/2000/svg" version="1.1" xmlns:xlink="http://www.w3.org/1999/xlink" width="1000" height="1000"><g clip-path="url(#SvgjsClipPath1096)"><rect width="1000" height="1000" fill="#009966"></rect><g transform="matrix(1.7632241813602014,0,0,1.7632241813602014,150,150)"><svg xmlns="http://www.w3.org/2000/svg" version="1.1" xmlns:xlink="http://www.w3.org/1999/xlink" width="397" height="397"><svg xmlns="http://www.w3.org/2000/svg" xmlns:xlink="http://www.w3.org/1999/xlink" width="397" zoomAndPan="magnify" viewBox="0 0 297.75 297.749993" height="397" preserveAspectRatio="xMidYMid meet" version="1.2"><defs><clipPath id="a3b92a220e"><path d="M 125.046875 56.179688 L 188.808594 56.179688 L 188.808594 108.328125 L 125.046875 108.328125 Z M 125.046875 56.179688 "></path></clipPath><clipPath id="72ec232707"><path d="M 151.125 56.179688 L 162.679688 56.179688 C 169.59375 56.179688 176.226562 58.925781 181.117188 63.816406 C 186.003906 68.707031 188.753906 75.339844 188.753906 82.253906 C 188.753906 89.167969 186.003906 95.800781 181.117188 100.691406 C 176.226562 105.582031 169.59375 108.328125 162.679688 108.328125 L 151.125 108.328125 C 144.207031 108.328125 137.574219 105.582031 132.6875 100.691406 C 127.796875 95.800781 125.046875 89.167969 125.046875 82.253906 C 125.046875 75.339844 127.796875 68.707031 132.6875 63.816406 C 137.574219 58.925781 144.207031 56.179688 151.125 56.179688 Z M 151.125 56.179688 "></path></clipPath><clipPath id="4e4ae5c9e3"><path d="M 0.046875 0.179688 L 63.808594 0.179688 L 63.808594 52.328125 L 0.046875 52.328125 Z M 0.046875 0.179688 "></path></clipPath><clipPath id="d2818c65cb"><path d="M 26.125 0.179688 L 37.679688 0.179688 C 44.59375 0.179688 51.226562 2.925781 56.117188 7.816406 C 61.003906 12.707031 63.753906 19.339844 63.753906 26.253906 C 63.753906 33.167969 61.003906 39.800781 56.117188 44.691406 C 51.226562 49.582031 44.59375 52.328125 37.679688 52.328125 L 26.125 52.328125 C 19.207031 52.328125 12.574219 49.582031 7.6875 44.691406 C 2.796875 39.800781 0.046875 33.167969 0.046875 26.253906 C 0.046875 19.339844 2.796875 12.707031 7.6875 7.816406 C 12.574219 2.925781 19.207031 0.179688 26.125 0.179688 Z M 26.125 0.179688 "></path></clipPath><clipPath id="6384107c00"><rect x="0" width="64" y="0" height="53"></rect></clipPath><clipPath id="SvgjsClipPath1096"><rect width="1000" height="1000" x="0" y="0" rx="200" ry="200"></rect></clipPath></defs><g id="e4d5730da7"><path style=" stroke:none;fill-rule:nonzero;fill:#fafaf9;fill-opacity:1;" d="M 193.277344 4.644531 L 32.34375 4.644531 C 60.996094 48.683594 89.648438 92.722656 118.328125 136.765625 L 193.304688 136.765625 C 234.703125 136.765625 268.285156 107.1875 268.285156 70.71875 C 268.285156 34.25 234.730469 4.671875 193.304688 4.671875 Z M 193.277344 4.644531 "></path><path style=" stroke:none;fill-rule:nonzero;fill:#fafaf9;fill-opacity:1;" d="M 193.277344 159.914062 L 32.34375 159.914062 C 60.996094 203.953125 89.648438 247.996094 118.328125 292.035156 L 193.304688 292.035156 C 234.703125 292.035156 268.285156 262.457031 268.285156 225.988281 C 268.285156 189.519531 234.730469 159.941406 193.304688 159.941406 Z M 193.277344 159.914062 "></path><g clip-rule="nonzero" clip-path="url(#a3b92a220e)"><g clip-rule="nonzero" clip-path="url(#72ec232707)"><g transform="matrix(1,0,0,1,125,56)"><g clip-path="url(#6384107c00)"><g clip-rule="nonzero" clip-path="url(#4e4ae5c9e3)"><g clip-rule="nonzero" clip-path="url(#d2818c65cb)"><path style=" stroke:none;fill-rule:nonzero;fill:#fafaf9;fill-opacity:1;" d="M 0.046875 0.179688 L 63.808594 0.179688 L 63.808594 52.328125 L 0.046875 52.328125 Z M 0.046875 0.179688 "></path></g></g></g></g></g></g></g></svg></svg></g></g></svg>