<svg xmlns="http://www.w3.org/2000/svg" xmlns:xlink="http://www.w3.org/1999/xlink" width="1052" zoomAndPan="magnify" viewBox="0 0 788.88 285.749983" height="381" preserveAspectRatio="xMidYMid meet" version="1.2"><defs><clipPath id="ece78bf9f6"><path d="M 0.285156 0 L 788.476562 0 L 788.476562 285.5 L 0.285156 285.5 Z M 0.285156 0 "/></clipPath><clipPath id="b5aeb4ba84"><path d="M 0.285156 7.402344 L 251.964844 7.402344 L 251.964844 258.105469 L 0.285156 258.105469 Z M 0.285156 7.402344 "/></clipPath><clipPath id="53c3e139a6"><path d="M 63.980469 7.402344 L 188.011719 7.402344 C 223.191406 7.402344 251.707031 35.921875 251.707031 71.097656 L 251.707031 194.410156 C 251.707031 229.589844 223.191406 258.105469 188.011719 258.105469 L 63.980469 258.105469 C 28.800781 258.105469 0.285156 229.589844 0.285156 194.410156 L 0.285156 71.097656 C 0.285156 35.921875 28.800781 7.402344 63.980469 7.402344 Z M 63.980469 7.402344 "/></clipPath><clipPath id="5fc63a6a63"><path d="M 0.285156 0.402344 L 251.824219 0.402344 L 251.824219 251.105469 L 0.285156 251.105469 Z M 0.285156 0.402344 "/></clipPath><clipPath id="9c7e696510"><path d="M 63.980469 0.402344 L 188.011719 0.402344 C 223.191406 0.402344 251.707031 28.921875 251.707031 64.097656 L 251.707031 187.410156 C 251.707031 222.589844 223.191406 251.105469 188.011719 251.105469 L 63.980469 251.105469 C 28.800781 251.105469 0.285156 222.589844 0.285156 187.410156 L 0.285156 64.097656 C 0.285156 28.921875 28.800781 0.402344 63.980469 0.402344 Z M 63.980469 0.402344 "/></clipPath><clipPath id="0ddc8c53d9"><rect x="0" width="252" y="0" height="252"/></clipPath></defs><g id="cb15f2de98"><g clip-rule="nonzero" clip-path="url(#ece78bf9f6)"><path style=" stroke:none;fill-rule:nonzero;fill:#ffffff;fill-opacity:1;" d="M 0.285156 0 L 788.59375 0 L 788.59375 285.5 L 0.285156 285.5 Z M 0.285156 0 "/></g><g clip-rule="nonzero" clip-path="url(#b5aeb4ba84)"><g clip-rule="nonzero" clip-path="url(#53c3e139a6)"><g transform="matrix(1,0,0,1,0.000000000000000056,7)"><g clip-path="url(#0ddc8c53d9)"><g clip-rule="nonzero" clip-path="url(#5fc63a6a63)"><g clip-rule="nonzero" clip-path="url(#9c7e696510)"><path style=" stroke:none;fill-rule:nonzero;fill:#009966;fill-opacity:1;" d="M 0.285156 0.402344 L 251.964844 0.402344 L 251.964844 251.105469 L 0.285156 251.105469 Z M 0.285156 0.402344 "/></g></g></g></g></g></g><path style=" stroke:none;fill-rule:nonzero;fill:#fafaf9;fill-opacity:1;" d="M 150.625 53.355469 L 61.875 53.355469 C 77.675781 77.640625 93.476562 101.929688 109.292969 126.214844 L 150.640625 126.214844 C 173.472656 126.214844 191.992188 109.90625 191.992188 89.792969 C 191.992188 69.683594 173.484375 53.371094 150.640625 53.371094 Z M 150.625 53.355469 "/><path style=" stroke:none;fill-rule:nonzero;fill:#fafaf9;fill-opacity:1;" d="M 150.625 138.984375 L 61.875 138.984375 C 77.675781 163.269531 93.476562 187.554688 109.292969 211.84375 L 150.640625 211.84375 C 173.472656 211.84375 191.992188 195.53125 191.992188 175.421875 C 191.992188 155.308594 173.484375 138.996094 150.640625 138.996094 Z M 150.625 138.984375 "/><g style="fill:#000000;fill-opacity:1;"><g transform="translate(301.635474, 203.024853)"><path style="stroke:none" d="M 5.796875 0 L 5.796875 -7.015625 C 9.773438 -7.140625 12.960938 -7.492188 15.359375 -8.078125 C 17.753906 -8.660156 19.625 -9.648438 20.96875 -11.046875 C 22.320312 -12.453125 23.226562 -14.441406 23.6875 -17.015625 C 24.15625 -19.597656 24.390625 -22.9375 24.390625 -27.03125 L 24.390625 -108.125 C 24.390625 -112.21875 24.210938 -115.519531 23.859375 -118.03125 C 23.515625 -120.550781 22.785156 -122.539062 21.671875 -124 C 20.566406 -125.46875 19.046875 -126.460938 17.109375 -126.984375 C 15.179688 -127.515625 12.640625 -127.894531 9.484375 -128.125 L 9.484375 -135.140625 L 65.8125 -135.140625 C 83.488281 -135.140625 97.09375 -132.300781 106.625 -126.625 C 116.164062 -120.957031 120.9375 -112.859375 120.9375 -102.328125 C 120.9375 -88.398438 110.929688 -78.570312 90.921875 -72.84375 L 90.921875 -72.140625 C 97.359375 -72.140625 103.175781 -71.234375 108.375 -69.421875 C 113.582031 -67.609375 118 -65.0625 121.625 -61.78125 C 125.257812 -58.5 128.070312 -54.632812 130.0625 -50.1875 C 132.050781 -45.75 133.046875 -40.894531 133.046875 -35.625 C 133.046875 -29.65625 131.609375 -24.445312 128.734375 -20 C 125.867188 -15.5625 121.742188 -11.820312 116.359375 -8.78125 C 105.953125 -2.925781 91.617188 0 73.359375 0 Z M 74.59375 -10.703125 C 93.4375 -10.703125 102.859375 -19.1875 102.859375 -36.15625 C 102.859375 -46.570312 99.460938 -54.175781 92.671875 -58.96875 C 89.160156 -61.425781 84.625 -63.179688 79.0625 -64.234375 C 73.507812 -65.285156 66.695312 -65.8125 58.625 -65.8125 L 50.203125 -65.8125 L 50.203125 -30.71875 C 50.203125 -23.457031 52.070312 -18.304688 55.8125 -15.265625 C 59.5625 -12.222656 65.820312 -10.703125 74.59375 -10.703125 Z M 60.546875 -76.34375 C 65.816406 -76.34375 70.378906 -76.835938 74.234375 -77.828125 C 78.097656 -78.828125 81.378906 -80.265625 84.078125 -82.140625 C 89.691406 -86.003906 92.5 -92.03125 92.5 -100.21875 C 92.5 -108.757812 90.390625 -114.929688 86.171875 -118.734375 C 81.960938 -122.535156 75.175781 -124.4375 65.8125 -124.4375 L 53.359375 -124.4375 C 51.253906 -124.4375 50.203125 -123.441406 50.203125 -121.453125 L 50.203125 -76.34375 Z M 60.546875 -76.34375 "/></g></g><g style="fill:#000000;fill-opacity:1;"><g transform="translate(441.517386, 203.024853)"><path style="stroke:none" d="M 45.109375 -28.78125 C 45.109375 -24.101562 45.28125 -20.359375 45.625 -17.546875 C 45.976562 -14.742188 46.679688 -12.582031 47.734375 -11.0625 C 48.785156 -9.539062 50.304688 -8.515625 52.296875 -7.984375 C 54.285156 -7.460938 56.976562 -7.140625 60.375 -7.015625 L 60.375 0 L 5.09375 0 L 5.09375 -7.015625 C 8.363281 -7.140625 11.019531 -7.519531 13.0625 -8.15625 C 15.113281 -8.800781 16.695312 -9.851562 17.8125 -11.3125 C 18.925781 -12.78125 19.6875 -14.828125 20.09375 -17.453125 C 20.5 -20.085938 20.703125 -23.457031 20.703125 -27.5625 L 20.703125 -49.140625 C 20.703125 -55.929688 20.585938 -61.519531 20.359375 -65.90625 C 20.128906 -70.289062 19.835938 -73.300781 19.484375 -74.9375 C 18.898438 -77.863281 17.582031 -79.796875 15.53125 -80.734375 C 13.488281 -81.671875 9.773438 -82.140625 4.390625 -82.140625 L 4.390625 -88.109375 L 45.109375 -94.78125 Z M 19.3125 -131.984375 C 19.3125 -135.847656 20.625 -139.09375 23.25 -141.71875 C 25.882812 -144.351562 29.078125 -145.671875 32.828125 -145.671875 C 36.679688 -145.671875 39.925781 -144.351562 42.5625 -141.71875 C 45.195312 -139.09375 46.515625 -135.847656 46.515625 -131.984375 C 46.515625 -128.242188 45.195312 -125.054688 42.5625 -122.421875 C 39.925781 -119.785156 36.679688 -118.46875 32.828125 -118.46875 C 29.078125 -118.46875 25.882812 -119.785156 23.25 -122.421875 C 20.625 -125.054688 19.3125 -128.242188 19.3125 -131.984375 Z M 19.3125 -131.984375 "/></g></g><g style="fill:#000000;fill-opacity:1;"><g transform="translate(504.876693, 203.024853)"><path style="stroke:none" d="M 43.359375 -28.78125 C 43.359375 -24.101562 43.53125 -20.359375 43.875 -17.546875 C 44.226562 -14.742188 44.929688 -12.582031 45.984375 -11.0625 C 47.035156 -9.539062 48.554688 -8.515625 50.546875 -7.984375 C 52.535156 -7.460938 55.226562 -7.140625 58.625 -7.015625 L 58.625 0 L 3.328125 0 L 3.328125 -7.015625 C 6.609375 -7.140625 9.269531 -7.519531 11.3125 -8.15625 C 13.363281 -8.800781 14.945312 -9.851562 16.0625 -11.3125 C 17.175781 -12.78125 17.9375 -14.828125 18.34375 -17.453125 C 18.75 -20.085938 18.953125 -23.457031 18.953125 -27.5625 L 18.953125 -100.046875 C 18.953125 -106.828125 18.832031 -112.410156 18.59375 -116.796875 C 18.363281 -121.191406 18.078125 -124.207031 17.734375 -125.84375 C 17.140625 -128.769531 15.816406 -130.703125 13.765625 -131.640625 C 11.722656 -132.578125 8.007812 -133.046875 2.625 -133.046875 L 2.625 -139.015625 L 43.359375 -145.671875 Z M 43.359375 -28.78125 "/></g></g><g style="fill:#000000;fill-opacity:1;"><g transform="translate(567.182954, 203.024853)"><path style="stroke:none" d="M 43.359375 -28.78125 C 43.359375 -24.101562 43.53125 -20.359375 43.875 -17.546875 C 44.226562 -14.742188 44.929688 -12.582031 45.984375 -11.0625 C 47.035156 -9.539062 48.554688 -8.515625 50.546875 -7.984375 C 52.535156 -7.460938 55.226562 -7.140625 58.625 -7.015625 L 58.625 0 L 3.328125 0 L 3.328125 -7.015625 C 6.609375 -7.140625 9.269531 -7.519531 11.3125 -8.15625 C 13.363281 -8.800781 14.945312 -9.851562 16.0625 -11.3125 C 17.175781 -12.78125 17.9375 -14.828125 18.34375 -17.453125 C 18.75 -20.085938 18.953125 -23.457031 18.953125 -27.5625 L 18.953125 -100.046875 C 18.953125 -106.828125 18.832031 -112.410156 18.59375 -116.796875 C 18.363281 -121.191406 18.078125 -124.207031 17.734375 -125.84375 C 17.140625 -128.769531 15.816406 -130.703125 13.765625 -131.640625 C 11.722656 -132.578125 8.007812 -133.046875 2.625 -133.046875 L 2.625 -139.015625 L 43.359375 -145.671875 Z M 43.359375 -28.78125 "/></g></g><g style="fill:#000000;fill-opacity:1;"><g transform="translate(629.489193, 203.024853)"><path style="stroke:none" d="M 57.5625 -94.78125 C 64.582031 -94.78125 71.222656 -93.578125 77.484375 -91.171875 C 83.742188 -88.773438 89.242188 -85.46875 93.984375 -81.25 C 98.722656 -77.039062 102.46875 -72.039062 105.21875 -66.25 C 107.96875 -60.457031 109.34375 -54.113281 109.34375 -47.21875 C 109.34375 -40.070312 107.96875 -33.515625 105.21875 -27.546875 C 102.46875 -21.585938 98.722656 -16.441406 93.984375 -12.109375 C 89.242188 -7.773438 83.742188 -4.378906 77.484375 -1.921875 C 71.222656 0.523438 64.582031 1.75 57.5625 1.75 C 50.664062 1.75 44.113281 0.550781 37.90625 -1.84375 C 31.707031 -4.238281 26.265625 -7.597656 21.578125 -11.921875 C 16.898438 -16.253906 13.21875 -21.429688 10.53125 -27.453125 C 7.84375 -33.484375 6.5 -40.070312 6.5 -47.21875 C 6.5 -54.113281 7.84375 -60.488281 10.53125 -66.34375 C 13.21875 -72.195312 16.898438 -77.226562 21.578125 -81.4375 C 26.265625 -85.65625 31.707031 -88.929688 37.90625 -91.265625 C 44.113281 -93.609375 50.664062 -94.78125 57.5625 -94.78125 Z M 57.5625 -84.59375 C 54.050781 -84.59375 50.832031 -83.6875 47.90625 -81.875 C 44.988281 -80.0625 42.503906 -77.515625 40.453125 -74.234375 C 38.410156 -70.960938 36.832031 -67.015625 35.71875 -62.390625 C 34.601562 -57.773438 34.046875 -52.65625 34.046875 -47.03125 C 34.046875 -41.1875 34.601562 -35.921875 35.71875 -31.234375 C 36.832031 -26.554688 38.410156 -22.578125 40.453125 -19.296875 C 42.503906 -16.023438 44.960938 -13.484375 47.828125 -11.671875 C 50.691406 -9.859375 53.9375 -8.953125 57.5625 -8.953125 C 61.195312 -8.953125 64.503906 -9.859375 67.484375 -11.671875 C 70.472656 -13.484375 73.019531 -16.054688 75.125 -19.390625 C 77.226562 -22.722656 78.863281 -26.726562 80.03125 -31.40625 C 81.207031 -36.09375 81.796875 -41.300781 81.796875 -47.03125 C 81.796875 -52.65625 81.207031 -57.75 80.03125 -62.3125 C 78.863281 -66.875 77.226562 -70.820312 75.125 -74.15625 C 73.019531 -77.488281 70.472656 -80.0625 67.484375 -81.875 C 64.503906 -83.6875 61.195312 -84.59375 57.5625 -84.59375 Z M 57.5625 -84.59375 "/></g></g></g></svg>