<svg xmlns="http://www.w3.org/2000/svg" xmlns:xlink="http://www.w3.org/1999/xlink" width="1080" zoomAndPan="magnify" viewBox="0 0 810 809.999993" height="1080" preserveAspectRatio="xMidYMid meet" version="1.2"><defs><clipPath id="107f16bd1d"><rect x="0" width="810" y="0" height="810"/></clipPath></defs><g id="99a5cda51f"><g transform="matrix(1,0,0,1,0,0.000000000000039746)"><g clip-path="url(#107f16bd1d)"><rect x="0" width="810" height="810" y="0" style="fill:#009966;fill-opacity:1;stroke:none;"/></g></g><path style=" stroke:none;fill-rule:nonzero;fill:#fafaf9;fill-opacity:1;" d="M 476.164062 148.886719 L 189.867188 148.886719 C 240.835938 227.230469 291.808594 305.578125 342.828125 383.921875 L 476.214844 383.921875 C 549.859375 383.921875 609.601562 331.304688 609.601562 266.429688 C 609.601562 201.550781 549.910156 148.933594 476.214844 148.933594 Z M 476.164062 148.886719 "/><path style=" stroke:none;fill-rule:nonzero;fill:#fafaf9;fill-opacity:1;" d="M 476.164062 425.105469 L 189.867188 425.105469 C 240.835938 503.453125 291.808594 581.796875 342.828125 660.144531 L 476.214844 660.144531 C 549.859375 660.144531 609.601562 607.527344 609.601562 542.648438 C 609.601562 477.773438 549.910156 425.15625 476.214844 425.15625 Z M 476.164062 425.105469 "/></g></svg>