<svg xmlns="http://www.w3.org/2000/svg" xmlns:xlink="http://www.w3.org/1999/xlink" width="417" zoomAndPan="magnify" viewBox="0 0 312.75 311.999988" height="416" preserveAspectRatio="xMidYMid meet" version="1.2"><defs><clipPath id="f2d0d374c8"><path d="M 0 0.125 L 312 0.125 L 312 311.152344 L 0 311.152344 Z M 0 0.125 "/></clipPath><clipPath id="c7d66609d5"><path d="M 63.699219 0.125 L 248.222656 0.125 C 283.402344 0.125 311.921875 28.644531 311.921875 63.824219 L 311.921875 247.453125 C 311.921875 282.632812 283.402344 311.152344 248.222656 311.152344 L 63.699219 311.152344 C 28.519531 311.152344 0 282.632812 0 247.453125 L 0 63.824219 C 0 28.644531 28.519531 0.125 63.699219 0.125 Z M 63.699219 0.125 "/></clipPath><clipPath id="af77a95533"><path d="M 0 0.125 L 311.992188 0.125 L 311.992188 311.152344 L 0 311.152344 Z M 0 0.125 "/></clipPath><clipPath id="d3ac490bf5"><path d="M 63.699219 0.125 L 248.222656 0.125 C 283.402344 0.125 311.921875 28.644531 311.921875 63.824219 L 311.921875 247.453125 C 311.921875 282.632812 283.402344 311.152344 248.222656 311.152344 L 63.699219 311.152344 C 28.519531 311.152344 0 282.632812 0 247.453125 L 0 63.824219 C 0 28.644531 28.519531 0.125 63.699219 0.125 Z M 63.699219 0.125 "/></clipPath><clipPath id="2fb7a77079"><rect x="0" width="312" y="0" height="312"/></clipPath></defs><g id="34eb2ce661"><g clip-rule="nonzero" clip-path="url(#f2d0d374c8)"><g clip-rule="nonzero" clip-path="url(#c7d66609d5)"><g transform="matrix(1,0,0,1,0,-0.000000000000044145)"><g clip-path="url(#2fb7a77079)"><g clip-rule="nonzero" clip-path="url(#af77a95533)"><g clip-rule="nonzero" clip-path="url(#d3ac490bf5)"><path style=" stroke:none;fill-rule:nonzero;fill:#009966;fill-opacity:1;" d="M 0 0.125 L 312.242188 0.125 L 312.242188 311.152344 L 0 311.152344 Z M 0 0.125 "/></g></g></g></g></g></g><path style=" stroke:none;fill-rule:nonzero;fill:#0c0a09;fill-opacity:1;" d="M 186.519531 57.132812 L 76.410156 57.132812 C 96.011719 87.265625 115.617188 117.398438 135.238281 147.527344 L 186.535156 147.527344 C 214.859375 147.527344 237.835938 127.292969 237.835938 102.339844 C 237.835938 77.390625 214.878906 57.152344 186.535156 57.152344 Z M 186.519531 57.132812 "/><path style=" stroke:none;fill-rule:nonzero;fill:#0c0a09;fill-opacity:1;" d="M 186.519531 163.367188 L 76.410156 163.367188 C 96.011719 193.496094 115.617188 223.628906 135.238281 253.757812 L 186.535156 253.757812 C 214.859375 253.757812 237.835938 233.523438 237.835938 208.570312 C 237.835938 183.621094 214.878906 163.386719 186.535156 163.386719 Z M 186.519531 163.367188 "/></g></svg>