<svg xmlns="http://www.w3.org/2000/svg" xmlns:xlink="http://www.w3.org/1999/xlink" width="500" zoomAndPan="magnify" viewBox="0 0 375 374.999991" height="500" preserveAspectRatio="xMidYMid meet" version="1.2"><defs><clipPath id="42a834cbe1"><path d="M 17.25 0 L 357.75 0 C 362.324219 0 366.710938 1.816406 369.949219 5.050781 C 373.183594 8.289062 375 12.675781 375 17.25 L 375 357.75 C 375 362.324219 373.183594 366.710938 369.949219 369.949219 C 366.710938 373.183594 362.324219 375 357.75 375 L 17.25 375 C 12.675781 375 8.289062 373.183594 5.050781 369.949219 C 1.816406 366.710938 0 362.324219 0 357.75 L 0 17.25 C 0 12.675781 1.816406 8.289062 5.050781 5.050781 C 8.289062 1.816406 12.675781 0 17.25 0 Z M 17.25 0 "/></clipPath><clipPath id="16888e9af6"><path d="M 37.5 64 L 337.5 64 L 337.5 311.292969 L 37.5 311.292969 Z M 37.5 64 "/></clipPath></defs><g id="b9206fc3f3"><g clip-rule="nonzero" clip-path="url(#42a834cbe1)"><rect x="0" width="375" y="0" height="374.999991" style="fill:#a684ff;fill-opacity:1;stroke:none;"/></g><g clip-rule="nonzero" clip-path="url(#16888e9af6)"><path style=" stroke:none;fill-rule:nonzero;fill:#ffffff;fill-opacity:1;" d="M 125.386719 307.824219 L 172.589844 260.621094 C 175.003906 258.203125 178.9375 258.207031 181.347656 260.621094 L 222.941406 302.214844 C 227.421875 306.695312 234.71875 306.695312 239.199219 302.214844 L 253.65625 287.753906 C 255.828125 285.582031 257.023438 282.695312 257.023438 279.625 C 257.023438 276.554688 255.828125 273.667969 253.65625 271.496094 L 185.097656 202.9375 C 180.617188 198.457031 173.324219 198.457031 168.839844 202.9375 L 94.671875 277.109375 C 90.1875 281.59375 90.1875 288.882812 94.671875 293.367188 L 109.125 307.824219 C 111.367188 310.066406 114.3125 311.1875 117.257812 311.1875 C 120.199219 311.1875 123.144531 310.066406 125.386719 307.824219 Z M 319.675781 275.675781 L 334.132812 261.21875 C 336.304688 259.046875 337.5 256.15625 337.5 253.089844 C 337.5 250.019531 336.304688 247.128906 334.132812 244.957031 L 238.605469 149.433594 C 234.125 144.949219 226.832031 144.949219 222.347656 149.433594 L 207.890625 163.890625 C 203.410156 168.371094 203.410156 175.664062 207.890625 180.148438 L 303.417969 275.675781 C 305.660156 277.917969 308.601562 279.035156 311.546875 279.035156 C 314.488281 279.035156 317.433594 277.917969 319.675781 275.675781 Z M 63.457031 257.390625 C 60.386719 257.390625 57.5 256.195312 55.328125 254.023438 L 40.871094 239.566406 C 38.699219 237.394531 37.503906 234.507812 37.503906 231.4375 C 37.503906 228.367188 38.699219 225.480469 40.871094 223.3125 L 195.890625 68.289062 C 200.371094 63.804688 207.667969 63.804688 212.152344 68.289062 L 226.605469 82.746094 C 231.089844 87.226562 231.089844 94.523438 226.605469 99.003906 L 71.585938 254.023438 C 69.414062 256.195312 66.527344 257.390625 63.457031 257.390625 "/></g></g></svg>