<svg xmlns="http://www.w3.org/2000/svg" xmlns:xlink="http://www.w3.org/1999/xlink" width="500" zoomAndPan="magnify" viewBox="0 0 375 374.999991" height="500" preserveAspectRatio="xMidYMid meet" version="1.2"><defs><clipPath id="4c378d600f"><path d="M 0 34 L 375 34 L 375 341.867188 L 0 341.867188 Z M 0 34 "/></clipPath></defs><g id="1f38ddfceb"><g clip-rule="nonzero" clip-path="url(#4c378d600f)"><path style=" stroke:none;fill-rule:nonzero;fill:#a684ff;fill-opacity:1;" d="M 109.765625 337.652344 L 168.722656 278.695312 C 171.738281 275.675781 176.648438 275.679688 179.660156 278.695312 L 231.609375 330.644531 C 237.207031 336.238281 246.316406 336.238281 251.914062 330.644531 L 269.972656 312.585938 C 272.683594 309.875 274.175781 306.265625 274.175781 302.429688 C 274.175781 298.59375 272.683594 294.992188 269.972656 292.277344 L 184.34375 206.652344 C 178.746094 201.058594 169.636719 201.058594 164.039062 206.652344 L 71.402344 299.289062 C 65.804688 304.890625 65.804688 313.996094 71.402344 319.597656 L 89.457031 337.652344 C 92.257812 340.453125 95.933594 341.851562 99.613281 341.851562 C 103.289062 341.851562 106.964844 340.453125 109.765625 337.652344 Z M 352.425781 297.5 L 370.484375 279.441406 C 373.195312 276.730469 374.6875 273.121094 374.6875 269.289062 C 374.6875 265.453125 373.195312 261.847656 370.484375 259.132812 L 251.175781 139.828125 C 245.574219 134.226562 236.46875 134.226562 230.867188 139.828125 L 212.808594 157.882812 C 207.214844 163.480469 207.214844 172.589844 212.808594 178.1875 L 332.121094 297.5 C 334.921875 300.296875 338.59375 301.695312 342.273438 301.695312 C 345.949219 301.695312 349.628906 300.296875 352.425781 297.5 Z M 32.417969 274.664062 C 28.582031 274.664062 24.976562 273.171875 22.265625 270.457031 L 4.207031 252.402344 C 1.496094 249.6875 0.00390625 246.082031 0.00390625 242.25 C 0.00390625 238.414062 1.496094 234.808594 4.207031 232.097656 L 197.824219 38.480469 C 203.417969 32.882812 212.53125 32.882812 218.132812 38.480469 L 236.183594 56.539062 C 241.785156 62.136719 241.785156 71.246094 236.183594 76.84375 L 42.570312 270.457031 C 39.859375 273.171875 36.253906 274.664062 32.417969 274.664062 "/></g></g></svg>