<svg xmlns="http://www.w3.org/2000/svg" xmlns:xlink="http://www.w3.org/1999/xlink" width="500" zoomAndPan="magnify" viewBox="0 0 375 374.999991" height="500" preserveAspectRatio="xMidYMid meet" version="1.2"><defs><clipPath id="03d8c3a0a6"><path d="M 71.25 0 L 303.75 0 C 322.648438 0 340.769531 7.507812 354.132812 20.867188 C 367.492188 34.230469 375 52.351562 375 71.25 L 375 303.75 C 375 322.648438 367.492188 340.769531 354.132812 354.132812 C 340.769531 367.492188 322.648438 375 303.75 375 L 71.25 375 C 52.351562 375 34.230469 367.492188 20.867188 354.132812 C 7.507812 340.769531 0 322.648438 0 303.75 L 0 71.25 C 0 52.351562 7.507812 34.230469 20.867188 20.867188 C 34.230469 7.507812 52.351562 0 71.25 0 Z M 71.25 0 "/></clipPath><clipPath id="4395b0f2b6"><path d="M 71.25 0 L 303.75 0 C 322.648438 0 340.769531 7.507812 354.132812 20.867188 C 367.492188 34.230469 375 52.351562 375 71.25 L 375 303.75 C 375 322.648438 367.492188 340.769531 354.132812 354.132812 C 340.769531 367.492188 322.648438 375 303.75 375 L 71.25 375 C 52.351562 375 34.230469 367.492188 20.867188 354.132812 C 7.507812 340.769531 0 322.648438 0 303.75 L 0 71.25 C 0 52.351562 7.507812 34.230469 20.867188 20.867188 C 34.230469 7.507812 52.351562 0 71.25 0 Z M 71.25 0 "/></clipPath><clipPath id="d94b87a39a"><rect x="0" width="375" y="0" height="375"/></clipPath></defs><g id="402bb6766b"><g clip-rule="nonzero" clip-path="url(#03d8c3a0a6)"><g transform="matrix(1,0,0,1,0,0)"><g clip-path="url(#d94b87a39a)"><g clip-rule="nonzero" clip-path="url(#4395b0f2b6)"><rect x="0" width="375" height="375" y="0" style="fill:#009966;fill-opacity:1;stroke:none;"/></g></g></g></g></g></svg>