<svg xmlns="http://www.w3.org/2000/svg" xmlns:xlink="http://www.w3.org/1999/xlink" width="1366" zoomAndPan="magnify" viewBox="0 0 1024.5 576" height="768" preserveAspectRatio="xMidYMid meet" version="1.0"><defs><clipPath id="dd96be5362"><path d="M 0 0.140625 L 1024 0.140625 L 1024 575.859375 L 0 575.859375 Z M 0 0.140625 " clip-rule="nonzero"/></clipPath><clipPath id="473d069be2"><path d="M 449 0.140625 L 1024 0.140625 L 1024 575.859375 L 449 575.859375 Z M 449 0.140625 " clip-rule="nonzero"/></clipPath><clipPath id="974a16c33b"><path d="M 750.335938 875.910156 L 449.878906 575.453125 L 1056.945312 -31.613281 L 1357.402344 268.84375 Z M 750.335938 875.910156 " clip-rule="nonzero"/></clipPath><clipPath id="7813c1c7ff"><path d="M 0.78125 0.140625 L 575 0.140625 L 575 575.859375 L 0.78125 575.859375 Z M 0.78125 0.140625 " clip-rule="nonzero"/></clipPath><clipPath id="5006bcf5c5"><path d="M 301.335938 875.910156 L 0.878906 575.453125 L 607.945312 -31.613281 L 908.402344 268.84375 Z M 301.335938 875.910156 " clip-rule="nonzero"/></clipPath><clipPath id="b6d178692e"><rect x="0" width="575" y="0" height="576"/></clipPath><clipPath id="5f3a564ff7"><path d="M 436 0.140625 L 1024 0.140625 L 1024 575.859375 L 436 575.859375 Z M 436 0.140625 " clip-rule="nonzero"/></clipPath><clipPath id="5d31f9da5e"><path d="M 436.707031 -11.007812 L 738.441406 -312.742188 L 1357.410156 306.230469 L 1055.679688 607.960938 Z M 436.707031 -11.007812 " clip-rule="nonzero"/></clipPath><clipPath id="8e9e56d21f"><path d="M 0.585938 0.140625 L 588 0.140625 L 588 575.859375 L 0.585938 575.859375 Z M 0.585938 0.140625 " clip-rule="nonzero"/></clipPath><clipPath id="4ee4c63d24"><path d="M 0.707031 -11.007812 L 302.441406 -312.742188 L 921.410156 306.230469 L 619.679688 607.960938 Z M 0.707031 -11.007812 " clip-rule="nonzero"/></clipPath><clipPath id="2e47c93b93"><rect x="0" width="588" y="0" height="576"/></clipPath></defs><g clip-path="url(#dd96be5362)"><path fill="#ffffff" d="M 0 0.140625 L 1024 0.140625 L 1024 575.859375 L 0 575.859375 Z M 0 0.140625 " fill-opacity="1" fill-rule="nonzero"/><path fill="#ffffff" d="M 0 0.140625 L 1024 0.140625 L 1024 575.859375 L 0 575.859375 Z M 0 0.140625 " fill-opacity="1" fill-rule="nonzero"/></g><g clip-path="url(#473d069be2)"><g clip-path="url(#974a16c33b)"><g transform="matrix(1, 0, 0, 1, 449, -0.000000000000058398)"><g clip-path="url(#b6d178692e)"><g clip-path="url(#7813c1c7ff)"><g clip-path="url(#5006bcf5c5)"><path fill="#0c0a09" d="M 301.335938 875.910156 L 0.929688 575.507812 L 608 -31.5625 L 908.402344 268.84375 Z M 301.335938 875.910156 " fill-opacity="1" fill-rule="nonzero"/></g></g></g></g></g></g><g clip-path="url(#5f3a564ff7)"><g clip-path="url(#5d31f9da5e)"><g transform="matrix(1, 0, 0, 1, 436, -0.000000000000058398)"><g clip-path="url(#2e47c93b93)"><g clip-path="url(#8e9e56d21f)"><g clip-path="url(#4ee4c63d24)"><path fill="#009966" d="M 0.707031 -11.007812 L 302.441406 -312.742188 L 921.539062 306.355469 L 619.808594 608.089844 Z M 0.707031 -11.007812 " fill-opacity="1" fill-rule="nonzero"/></g></g></g></g></g></g></svg>