<svg xmlns="http://www.w3.org/2000/svg" xmlns:xlink="http://www.w3.org/1999/xlink" width="1080" zoomAndPan="magnify" viewBox="0 0 810 809.999993" height="1080" preserveAspectRatio="xMidYMid meet" version="1.0"><defs><clipPath id="e39ff34cb6"><path d="M 0 0 L 810 0 L 810 810 L 0 810 Z M 0 0 " clip-rule="nonzero"/></clipPath><clipPath id="c604730bdc"><rect x="0" width="810" y="0" height="810"/></clipPath></defs><g transform="matrix(1, 0, 0, 1, 0, 0.000000000000039746)"><g clip-path="url(#c604730bdc)"><g clip-path="url(#e39ff34cb6)"><rect x="-178.2" width="1166.4" fill="#009966" height="1166.39999" y="-178.199998" fill-opacity="1"/></g></g></g><path fill="#fafaf9" d="M 481.085938 147.976562 L 240.808594 147.976562 C 220.757812 147.976562 208.679688 170.21875 219.632812 187.03125 C 257.902344 245.84375 296.171875 304.652344 334.460938 363.460938 C 342.570312 375.933594 356.445312 383.441406 371.308594 383.441406 L 481.101562 383.441406 C 554.910156 383.441406 614.730469 330.734375 614.730469 265.707031 C 614.730469 200.683594 554.910156 147.976562 481.101562 147.976562 Z M 481.085938 147.976562 " fill-opacity="1" fill-rule="nonzero"/><path fill="#fafaf9" d="M 481.085938 424.761719 L 244.835938 424.761719 C 223.039062 424.761719 209.933594 448.933594 221.824219 467.207031 C 259.363281 524.894531 296.902344 582.582031 334.445312 640.265625 C 342.550781 652.738281 356.425781 660.246094 371.292969 660.246094 L 481.085938 660.246094 C 554.890625 660.246094 614.710938 607.539062 614.710938 542.511719 C 614.710938 477.488281 554.890625 424.78125 481.085938 424.78125 Z M 481.085938 424.761719 " fill-opacity="1" fill-rule="nonzero"/></svg>