<svg xmlns="http://www.w3.org/2000/svg" xmlns:xlink="http://www.w3.org/1999/xlink" width="417" zoomAndPan="magnify" viewBox="0 0 312.75 311.999988" height="416" preserveAspectRatio="xMidYMid meet" version="1.0"><defs><clipPath id="5c0dc35c9f"><path d="M 0 0.125 L 312 0.125 L 312 311.152344 L 0 311.152344 Z M 0 0.125 " clip-rule="nonzero"/></clipPath><clipPath id="44e3a67193"><path d="M 63.699219 0.125 L 248.222656 0.125 C 283.402344 0.125 311.921875 28.644531 311.921875 63.824219 L 311.921875 247.453125 C 311.921875 282.632812 283.402344 311.152344 248.222656 311.152344 L 63.699219 311.152344 C 28.519531 311.152344 0 282.632812 0 247.453125 L 0 63.824219 C 0 28.644531 28.519531 0.125 63.699219 0.125 Z M 63.699219 0.125 " clip-rule="nonzero"/></clipPath><clipPath id="1d1eaada26"><path d="M 0 0.125 L 311.992188 0.125 L 311.992188 311.152344 L 0 311.152344 Z M 0 0.125 " clip-rule="nonzero"/></clipPath><clipPath id="b99d1d45a6"><path d="M 63.699219 0.125 L 248.222656 0.125 C 283.402344 0.125 311.921875 28.644531 311.921875 63.824219 L 311.921875 247.453125 C 311.921875 282.632812 283.402344 311.152344 248.222656 311.152344 L 63.699219 311.152344 C 28.519531 311.152344 0 282.632812 0 247.453125 L 0 63.824219 C 0 28.644531 28.519531 0.125 63.699219 0.125 Z M 63.699219 0.125 " clip-rule="nonzero"/></clipPath><clipPath id="d831bf472f"><rect x="0" width="312" y="0" height="312"/></clipPath></defs><g clip-path="url(#5c0dc35c9f)"><g clip-path="url(#44e3a67193)"><g transform="matrix(1, 0, 0, 1, 0, -0.000000000000044145)"><g clip-path="url(#d831bf472f)"><g clip-path="url(#1d1eaada26)"><g clip-path="url(#b99d1d45a6)"><path fill="#009966" d="M 0 0.125 L 312.242188 0.125 L 312.242188 311.152344 L 0 311.152344 Z M 0 0.125 " fill-opacity="1" fill-rule="nonzero"/></g></g></g></g></g></g><path fill="#fafaf9" d="M 186.628906 52.023438 L 89.769531 52.023438 C 81.683594 52.023438 76.816406 60.988281 81.230469 67.765625 C 96.660156 91.476562 112.085938 115.183594 127.523438 138.890625 C 130.789062 143.917969 136.382812 146.945312 142.375 146.945312 L 186.636719 146.945312 C 216.390625 146.945312 240.507812 125.695312 240.507812 99.484375 C 240.507812 73.269531 216.390625 52.023438 186.636719 52.023438 Z M 186.628906 52.023438 " fill-opacity="1" fill-rule="nonzero"/><path fill="#fafaf9" d="M 186.628906 163.601562 L 91.390625 163.601562 C 82.605469 163.601562 77.320312 173.347656 82.113281 180.714844 C 97.246094 203.96875 112.382812 227.222656 127.515625 250.480469 C 130.785156 255.503906 136.375 258.53125 142.371094 258.53125 L 186.628906 258.53125 C 216.382812 258.53125 240.5 237.285156 240.5 211.070312 C 240.5 184.855469 216.382812 163.609375 186.628906 163.609375 Z M 186.628906 163.601562 " fill-opacity="1" fill-rule="nonzero"/></svg>