<?xml version="1.0" encoding="UTF-8" standalone="no"?><!DOCTYPE svg PUBLIC "-//W3C//DTD SVG 1.1//EN" "http://www.w3.org/Graphics/SVG/1.1/DTD/svg11.dtd"><svg width="100%" height="100%" viewBox="0 0 422 422" version="1.1" xmlns="http://www.w3.org/2000/svg" xmlns:xlink="http://www.w3.org/1999/xlink" xml:space="preserve" xmlns:serif="http://www.serif.com/" style="fill-rule:evenodd;clip-rule:evenodd;stroke-linejoin:round;stroke-miterlimit:2;"><path d="M268.755,12.885l-184.568,0c-15.401,0 -24.677,17.083 -16.266,29.995c29.396,45.172 58.792,90.344 88.198,135.516c6.229,9.578 16.885,15.344 28.302,15.344l84.333,0c56.688,0 102.635,-40.484 102.635,-90.427c0,-49.948 -45.948,-90.427 -102.635,-90.427Z" style="fill:#096;fill-rule:nonzero;"/><path d="M268.74,225.479l-181.458,0c-16.74,0 -26.807,18.568 -17.677,32.599c28.833,44.312 57.667,88.62 86.5,132.927c6.229,9.578 16.885,15.344 28.302,15.344l84.333,0c56.687,0 102.635,-40.484 102.635,-90.427c0,-49.948 -45.948,-90.427 -102.635,-90.427l0,-0.016Z" style="fill:#096;fill-rule:nonzero;"/></svg>